<svg width="65" height="24" viewBox="0 0 65 24" fill="none" xmlns="http://www.w3.org/2000/svg">
<g opacity="0.5">
<path d="M20.8112 0.463786C21.2359 0.661339 21.6227 0.94208 21.9517 1.29165C22.2779 1.64331 22.5395 2.05771 22.723 2.51322C22.917 2.98647 23.0163 3.49819 23.0144 4.01525V23.2503C23.0166 23.3329 23.0028 23.4152 22.9738 23.4918C22.9448 23.5684 22.9013 23.6377 22.8461 23.6952C22.7919 23.7547 22.7269 23.8017 22.6552 23.8333C22.5835 23.8648 22.5065 23.8802 22.429 23.8786H18.1432C18.0678 23.8814 17.9927 23.8664 17.9233 23.8347C17.8539 23.803 17.7917 23.7554 17.7412 23.6952C17.6377 23.5743 17.5827 23.4145 17.588 23.2503V5.76536H14.1337V23.2503C14.139 23.4145 14.084 23.5743 13.9804 23.6952C13.9299 23.7554 13.8678 23.803 13.7984 23.8347C13.7289 23.8664 13.6539 23.8814 13.5785 23.8786H9.69459C9.6171 23.8802 9.54013 23.8648 9.4684 23.8333C9.39668 23.8017 9.33174 23.7547 9.27757 23.6952C9.22196 23.6378 9.17807 23.5686 9.14866 23.492C9.11926 23.4154 9.10498 23.3331 9.10674 23.2503V5.76536H5.65495V23.2503C5.66583 23.3358 5.6581 23.4228 5.63237 23.5046C5.60663 23.5863 5.5636 23.6606 5.50663 23.7214C5.44967 23.7823 5.38033 23.8282 5.30407 23.8555C5.2278 23.8827 5.14668 23.8907 5.06709 23.8786H0.8139C0.734301 23.8907 0.653184 23.8827 0.576919 23.8555C0.500654 23.8282 0.431317 23.7823 0.374354 23.7214C0.31739 23.6606 0.274352 23.5863 0.248618 23.5046C0.222885 23.4228 0.215157 23.3358 0.226042 23.2503V0.779292C0.215157 0.693799 0.222885 0.606762 0.248618 0.525016C0.274352 0.443269 0.31739 0.36904 0.374354 0.308157C0.431317 0.247274 0.500654 0.201394 0.576919 0.174122C0.653184 0.14685 0.734301 0.138928 0.8139 0.150977H19.4043C19.8885 0.148578 20.3677 0.255139 20.8112 0.463786Z" fill="#183249"/>
<path d="M20.8112 0.463786C21.2359 0.661339 21.6227 0.94208 21.9517 1.29165C22.2779 1.64331 22.5395 2.05771 22.723 2.51322C22.917 2.98647 23.0163 3.49819 23.0144 4.01525V5.7303L17.588 5.76536H5.65495L0.226042 5.7303V0.779291C0.215157 0.693799 0.222885 0.606762 0.248618 0.525016C0.274352 0.443269 0.31739 0.36904 0.374354 0.308157C0.431317 0.247274 0.500654 0.201394 0.576919 0.174122C0.653184 0.14685 0.734301 0.138928 0.8139 0.150977H19.4043C19.8885 0.148578 20.3677 0.255139 20.8112 0.463786Z" fill="#183249"/>
<path d="M41.7028 18.1185C41.7818 18.1156 41.8605 18.1307 41.9336 18.1628C42.0068 18.1949 42.0728 18.2432 42.1274 18.3046C42.2355 18.4286 42.2942 18.5932 42.2907 18.763V23.2367C42.2942 23.4066 42.2355 23.5711 42.1274 23.6952C42.0728 23.7566 42.0068 23.8049 41.9336 23.837C41.8605 23.869 41.7818 23.8841 41.7028 23.8812H27.0239C26.9412 23.8953 26.8566 23.8885 26.7767 23.8615C26.6969 23.8344 26.624 23.7878 26.5638 23.7253C26.5036 23.6627 26.4578 23.5861 26.4299 23.5013C26.4021 23.4165 26.393 23.3259 26.4034 23.2367V0.808869C26.393 0.719669 26.4021 0.629099 26.4299 0.544315C26.4578 0.459531 26.5036 0.382857 26.5638 0.320347C26.624 0.257837 26.6969 0.211206 26.7767 0.184137C26.8566 0.157068 26.9412 0.150302 27.0239 0.164375H31.5459C31.6279 0.152154 31.7113 0.160307 31.7899 0.188207C31.8684 0.216106 31.94 0.263005 31.999 0.325285C32.058 0.387564 32.1028 0.463559 32.1301 0.547405C32.1574 0.631251 32.1664 0.720707 32.1564 0.808869V17.528C32.1533 17.6113 32.1677 17.6944 32.1986 17.7709C32.2294 17.8475 32.276 17.9156 32.3347 17.9702C32.457 18.0844 32.6149 18.1451 32.7769 18.1401L41.7028 18.1185Z" fill="#183249"/>
<path d="M32.1061 23.8813H27.0214C26.9388 23.8949 26.8545 23.8878 26.775 23.8605C26.6954 23.8332 26.6229 23.7865 26.563 23.7241C26.5031 23.6616 26.4575 23.5851 26.4298 23.5006C26.4021 23.416 26.3931 23.3257 26.4033 23.2368V0.808929C26.3931 0.71999 26.4021 0.629701 26.4298 0.545154C26.4575 0.460607 26.5031 0.384104 26.563 0.321653C26.6229 0.259202 26.6954 0.212503 26.775 0.185224C26.8545 0.157945 26.9388 0.150829 27.0214 0.164434H31.5207C31.6033 0.150829 31.6876 0.157945 31.7671 0.185224C31.8467 0.212503 31.9192 0.259202 31.9791 0.321653C32.039 0.384104 32.0846 0.460607 32.1123 0.545154C32.14 0.629701 32.149 0.71999 32.1387 0.808929V17.528C32.1387 17.6898 32.1061 23.8813 32.1061 23.8813Z" fill="#183249"/>
<path d="M64.2701 0.151045C64.3516 0.149081 64.4326 0.164518 64.5085 0.19646C64.5844 0.228401 64.6537 0.276211 64.7122 0.337112C64.7707 0.396174 64.817 0.467714 64.8481 0.54713C64.8793 0.626547 64.8946 0.712082 64.8931 0.798236V23.3016C64.8949 23.3874 64.8797 23.4726 64.8485 23.5517C64.8173 23.6307 64.7709 23.7017 64.7122 23.76C64.6541 23.8218 64.585 23.8703 64.5091 23.9028C64.4331 23.9352 64.3518 23.9509 64.2701 23.9488H59.7029C59.6207 23.9511 59.539 23.9355 59.4626 23.9031C59.3862 23.8707 59.3167 23.822 59.2582 23.76C59.1999 23.7016 59.1538 23.6305 59.1231 23.5514C59.0923 23.4724 59.0776 23.3872 59.0798 23.3016V15.449C59.0827 15.3669 59.0694 15.2851 59.0408 15.209C59.0122 15.1328 58.969 15.0639 58.914 15.0068C58.8569 14.9495 58.7897 14.905 58.7164 14.8758C58.6431 14.8467 58.5651 14.8334 58.487 14.8369H52.0833C51.9205 14.8318 51.7618 14.8924 51.6386 15.0068C51.5797 15.0614 51.5329 15.1294 51.5016 15.2059C51.4703 15.2824 51.4553 15.3655 51.4578 15.449V23.3016C51.4681 23.3912 51.459 23.4821 51.431 23.5672C51.403 23.6523 51.357 23.7292 51.2966 23.792C51.2362 23.8548 51.1631 23.9016 51.0829 23.9288C51.0027 23.956 50.9178 23.9629 50.8347 23.9488H46.3002C46.217 23.9634 46.1319 23.957 46.0515 23.93C45.9711 23.903 45.8977 23.8562 45.8371 23.7933C45.7766 23.7304 45.7306 23.6532 45.7028 23.5678C45.675 23.4824 45.6662 23.3913 45.6772 23.3016V0.809023C45.6662 0.719352 45.675 0.628185 45.7028 0.54281C45.7306 0.457434 45.7766 0.380218 45.8371 0.31733C45.8977 0.254442 45.9711 0.207627 46.0515 0.180627C46.1319 0.153627 46.217 0.14719 46.3002 0.161831H50.8347C50.9178 0.147773 51.0027 0.154619 51.0829 0.18183C51.1631 0.20904 51.2362 0.255871 51.2966 0.318627C51.357 0.381383 51.403 0.458348 51.431 0.543452C51.459 0.628555 51.4681 0.71947 51.4578 0.809023V8.41082C51.4578 8.84228 51.6663 9.05801 52.0833 9.05801H58.487C58.5663 9.06111 58.6454 9.04614 58.7191 9.01407C58.7927 8.982 58.8591 8.93356 58.914 8.87195C58.9687 8.81066 59.0115 8.73835 59.0399 8.6592C59.0684 8.58005 59.082 8.49563 59.0798 8.41082V0.809023C59.0779 0.723045 59.0927 0.637581 59.1234 0.558152C59.1542 0.478722 59.2001 0.407095 59.2582 0.347899C59.3171 0.286793 59.3868 0.238875 59.4631 0.206932C59.5395 0.174988 59.621 0.159657 59.7029 0.161831L64.2701 0.151045Z" fill="#183249"/>
<path d="M51.4578 15.4486V23.3012C51.4681 23.3908 51.459 23.4817 51.431 23.5668C51.403 23.6519 51.357 23.7289 51.2966 23.7916C51.2362 23.8544 51.163 23.9012 51.0829 23.9284C51.0027 23.9556 50.9178 23.9625 50.8347 23.9484H46.3002C46.217 23.9631 46.1319 23.9566 46.0515 23.9296C45.9711 23.9026 45.8977 23.8558 45.8371 23.7929C45.7766 23.73 45.7306 23.6528 45.7028 23.5674C45.675 23.4821 45.6662 23.3909 45.6772 23.3012V0.808649C45.6662 0.718979 45.675 0.627812 45.7028 0.542436C45.7306 0.457061 45.7766 0.379845 45.8371 0.316957C45.8977 0.254068 45.9711 0.207254 46.0515 0.180254C46.1319 0.153254 46.217 0.146816 46.3002 0.161458H50.8347C50.9178 0.1474 51.0027 0.154246 51.0829 0.181456C51.163 0.208667 51.2362 0.255498 51.2966 0.318254C51.357 0.38101 51.403 0.457975 51.431 0.543078C51.459 0.628182 51.4681 0.719096 51.4578 0.808649V15.4594V15.4486Z" fill="#183249"/>
<path d="M64.2701 0.151045C64.3516 0.149081 64.4326 0.164518 64.5085 0.19646C64.5844 0.228401 64.6537 0.276211 64.7122 0.337112C64.7707 0.396174 64.817 0.467714 64.8481 0.54713C64.8793 0.626547 64.8946 0.712082 64.8931 0.798236V23.3016C64.8949 23.3874 64.8796 23.4726 64.8485 23.5517C64.8173 23.6307 64.7708 23.7017 64.7122 23.76C64.6541 23.8218 64.585 23.8703 64.5091 23.9028C64.4331 23.9352 64.3518 23.9509 64.2701 23.9488H59.7028C59.6207 23.9511 59.539 23.9355 59.4626 23.9031C59.3862 23.8707 59.3166 23.822 59.2582 23.76C59.1999 23.7016 59.1538 23.6304 59.1231 23.5514C59.0923 23.4724 59.0776 23.3872 59.0798 23.3016V0.809022C59.0778 0.723045 59.0927 0.637581 59.1234 0.558152C59.1541 0.478722 59.2001 0.407095 59.2582 0.347899C59.3171 0.286793 59.3868 0.238875 59.4631 0.206932C59.5394 0.174988 59.6209 0.159657 59.7028 0.161831L64.2701 0.151045Z" fill="#183249"/>
</g>
</svg>
